<svg width="61" height="108" viewBox="0 0 61 108" fill="none" xmlns="http://www.w3.org/2000/svg">
<path d="M50.0547 107.664C49.7633 108.032 49.3374 108.227 48.8892 108.205C48.7995 108.205 48.6874 108.205 48.5978 108.205C48.4185 108.205 48.2167 108.205 48.015 108.205C47.9029 108.205 47.7909 108.205 47.7012 108.205C45.3253 108.227 42.9718 108.249 40.6184 108.249C37.9287 108.249 35.239 108.227 32.6165 108.205H3.79198C3.32128 108.205 2.89541 107.989 2.64886 107.599C2.4023 107.231 2.35748 106.755 2.5592 106.343L15.4697 78.6089L7.06444 68.8661C7.04203 68.8445 7.01961 68.8228 7.01961 68.7795C6.99719 68.7362 6.95237 68.6929 6.92995 68.6496C6.90754 68.6063 6.88513 68.563 6.88513 68.5414C6.86271 68.4981 6.8403 68.4548 6.8403 68.4331C6.81789 68.3898 6.81788 68.3465 6.81788 68.3032C6.81788 68.2599 6.79547 68.2166 6.79547 68.1733C6.79547 68.13 6.79547 68.0867 6.79547 68.0434C6.79547 68.0001 6.79547 67.9568 6.79547 67.9135C6.79547 67.8702 6.81788 67.8052 6.81788 67.7619C6.81788 67.7403 6.81789 67.697 6.8403 67.6753C6.8403 67.6753 6.8403 67.6753 6.8403 67.6537C6.86271 67.5887 6.88512 67.5454 6.90754 67.4805C6.92995 67.4588 6.92995 67.4372 6.92995 67.3939C6.95237 67.3506 6.97478 67.3289 6.9972 67.2856C7.01962 67.2423 7.04203 67.199 7.06444 67.1774C7.08685 67.1557 7.10926 67.1341 7.13168 67.1124C7.17651 67.0691 7.22134 67.0258 7.26616 66.9825C7.28858 66.9609 7.311 66.9609 7.33341 66.9392C7.37824 66.9176 7.42306 66.8743 7.46789 66.8526C7.51272 66.831 7.53513 66.8093 7.57996 66.8093C7.62479 66.7877 7.66962 66.766 7.71445 66.766C7.75927 66.7443 7.8041 66.7443 7.82652 66.7443C7.87135 66.7443 7.91618 66.7227 7.96101 66.7227C8.00583 66.7227 8.05066 66.7227 8.09549 66.7227C8.14032 66.7227 8.18515 66.7227 8.22997 66.7227C8.2748 66.7227 8.34204 66.7443 8.38687 66.7443C8.40928 66.7443 8.45411 66.7443 8.47653 66.766C25.6457 71.2477 42.4787 62.4359 47.0064 59.7945C46.4684 58.9284 46.0426 57.9542 45.7512 56.85C45.5719 56.1355 45.9977 55.421 46.7374 55.2478C47.4771 55.0746 48.2167 55.486 48.396 56.2005C48.7323 57.4779 49.2702 58.5171 49.9874 59.2965C50.0099 59.3182 50.0099 59.3398 50.0323 59.3615C50.0547 59.3831 50.0547 59.4048 50.0771 59.4048C50.0771 59.4264 50.0995 59.4264 50.0995 59.4481C50.1219 59.4697 50.1219 59.4914 50.1443 59.513C50.5254 60.1625 59.3117 75.6644 51.534 86.1434C51.5116 86.165 51.5116 86.1867 51.4892 86.2083L48.3736 89.9755L35.4407 105.607C39.0045 105.629 42.6356 105.629 46.2667 105.607C46.3115 105.586 46.3564 105.564 46.4236 105.542C46.6702 105.477 47.0512 105.369 47.4995 105.326C47.3202 102.814 47.0512 100.281 46.8046 97.8131L46.6477 96.2975C46.5805 95.5831 47.1184 94.9336 47.8805 94.8469C48.6202 94.782 49.2926 95.3016 49.3823 96.0377L49.5392 97.5533C49.853 100.584 50.1892 103.724 50.3685 106.82V106.841C50.3237 107.123 50.234 107.426 50.0547 107.664ZM48.396 62.0462C46.4012 63.2153 42.277 65.467 36.808 67.3722C32.0337 69.0393 25.5785 70.6415 18.4732 70.6415C16.2542 70.6415 13.968 70.4899 11.6593 70.1219L18.0698 77.5697C18.406 77.9594 18.4732 78.5007 18.2715 78.9553L5.8765 105.564H31.9441L46.2219 88.3084L49.315 84.5845C54.8737 77.0284 50.2116 65.7917 48.396 62.0462Z" fill="white"/>
<path d="M53.4166 42.8853C53.3269 44.5524 53.17 46.068 52.9683 47.4103C52.9907 47.9949 52.9235 49.6403 51.7131 50.8528C51.1528 51.4157 50.1666 52.0436 48.5079 52.0869C48.2389 52.2817 47.8355 52.5632 47.32 52.8879C43.913 55.1396 34.5888 60.7038 21.8575 63.7566C21.0506 64.0381 14.7523 66.1165 9.41772 66.1165C7.71425 66.1165 6.10043 65.9 4.778 65.3587C4.06075 65.0556 3.43316 64.6443 2.94004 64.168C2.82797 64.0597 2.73832 63.9298 2.67107 63.7999L0.138283 58.6903C-0.063446 58.3006 -0.0410347 57.846 0.183105 57.4562C0.407246 57.0882 0.788288 56.85 1.21416 56.8067C0.721046 53.256 1.41589 49.9435 3.29867 46.9557C3.43316 46.7391 6.86251 41.4997 10.2919 37.7758C10.6953 37.3428 11.3453 37.2345 11.8609 37.451H11.8833L32.1904 41.3481C32.9301 41.4997 33.4008 42.1925 33.2663 42.907C33.1318 43.5348 32.5715 43.9679 31.9215 43.9679C31.8318 43.9679 31.7422 43.9679 31.6525 43.9462L11.7712 40.114C8.67805 43.6214 5.60732 48.298 5.58491 48.3196C4.03833 50.7878 3.47798 53.5591 3.90385 56.5686L4.48661 56.5253L4.6211 55.8974C4.68834 55.5293 4.9349 55.2046 5.27111 55.0314C5.60732 54.8365 6.01077 54.7932 6.3694 54.9015L14.3264 57.2397H14.3488C14.3488 57.2397 14.3712 57.2397 14.3937 57.2397C14.7971 57.283 17.0833 57.2397 22.261 53.3859C22.2834 53.3859 22.2834 53.3643 22.3058 53.3643L37.525 42.7554L38.713 41.9327L39.0492 41.7162L35.1715 25.0668C35.0595 24.5905 35.2164 24.1142 35.5974 23.7894C35.7319 23.6595 39.1836 20.7367 43.532 20.4552C44.0923 20.4119 44.6527 20.4336 45.213 20.4769C47.9251 20.7583 50.3235 22.144 52.2959 24.6121C52.4304 24.7853 52.5425 25.0019 52.5649 25.24C52.5649 25.305 52.6545 25.8679 52.7666 26.8422C52.8114 26.6257 52.8338 26.4308 52.8787 26.2143C53.2149 24.0059 53.2597 21.7759 53.0131 19.5892C52.8562 19.0263 52.7666 18.5066 52.789 18.0303C51.6235 11.7733 48.0596 7.29159 44.1148 7.09673C43.3751 7.05343 42.6578 7.09673 41.9182 7.20499C41.1785 7.31324 40.4613 7.52975 39.7216 7.81121L39.5871 7.85451C39.5423 7.87616 39.475 7.89781 39.4302 7.91946C36.4715 9.19685 34.5663 11.5351 33.6698 12.8342C33.4905 13.094 33.3784 13.2888 33.3112 13.3971C32.6163 16.6663 24.0093 23.8977 21.3644 26.0411C21.342 26.0627 21.342 26.0627 21.3196 26.0844C17.0161 29.267 16.2316 32.2332 16.0747 33.1642C16.2316 33.7487 15.9626 34.3766 15.3799 34.6581C15.1781 34.7663 14.9764 34.8096 14.7523 34.8096C14.2592 34.8096 13.7885 34.5498 13.5419 34.0951C13.3626 33.7704 13.2954 33.424 13.3402 33.0992C13.4523 31.9734 14.2368 28.033 19.6161 24.0276C24.6817 19.8923 30.3301 14.458 30.6215 12.8775C30.6663 12.6177 30.7559 12.4012 30.868 12.2063C30.9128 12.1197 31.0249 11.9465 31.1594 11.7516C31.1146 10.3227 30.6215 4.82341 26.1611 2.59339C25.6007 2.31193 25.3093 1.70571 25.4662 1.09949C25.6231 0.514923 26.1611 0.0819092 26.7887 0.0819092H37.1664H55.3442C55.7253 0.0819092 56.0839 0.233464 56.3528 0.493272C56.6218 0.753081 56.7339 1.12114 56.7115 1.4892C56.7115 1.51085 56.5322 4.13059 55.5235 17.8355C55.5908 18.2035 55.658 18.6149 55.7028 19.0479C56.0391 20.0655 56.7563 21.3429 57.5184 22.7069C60.5219 28.2278 65.1616 36.4334 53.4166 42.8853ZM44.8544 23.1832C44.451 23.1399 44.0475 23.1399 43.6441 23.1615C41.1785 23.3348 38.9819 24.6554 37.9733 25.3699L41.8733 42.041C41.9854 42.5606 41.7837 43.1018 41.3354 43.4049L40.2819 44.1411L39.094 44.9638L23.8972 55.551C18.9437 59.2316 16.0299 59.9461 14.5281 59.9461C14.035 59.9461 13.6988 59.8595 13.4747 59.7945L6.997 57.8893L6.95217 58.0625C6.8401 58.647 6.32457 59.08 5.71939 59.1233L3.41074 59.2966L4.97973 62.4576C5.20387 62.6524 5.49525 62.8256 5.83146 62.9555C9.61945 64.5577 18.0247 62.2843 20.961 61.2668C21.0058 61.2451 21.0506 61.2451 21.0955 61.2235C33.4456 58.279 42.4561 52.9096 45.751 50.7229C46.6924 50.1167 47.1855 49.7269 47.2079 49.7269C47.4769 49.5321 47.7907 49.4238 48.1269 49.4455C48.8665 49.4888 49.4045 49.3589 49.7183 49.0341C50.189 48.5795 50.2338 47.7351 50.2114 47.4753C50.2114 47.367 50.2114 47.2588 50.2338 47.1505C50.4804 45.5917 50.6597 43.773 50.7269 41.7378C50.7269 41.5213 50.7493 41.2832 50.7493 41.0667V41.0017C50.7493 40.7636 50.7493 40.5254 50.7493 40.2656C50.7717 38.2304 50.7045 36.0221 50.57 33.7054C50.3459 30.0465 49.9648 27.037 49.8303 26.0411C48.3958 24.3307 46.7148 23.3564 44.8544 23.1832ZM33.4681 8.89374C34.656 7.70295 36.2474 6.46886 38.2423 5.60284C38.2423 5.60284 38.2423 5.60284 38.2647 5.60284C38.2647 5.60284 38.2647 5.60284 38.2871 5.60284C38.2871 5.60284 38.2871 5.60284 38.3095 5.60284C38.3767 5.58118 38.444 5.53788 38.5336 5.51623L38.6233 5.47293C38.7578 5.40798 38.9147 5.36468 39.0492 5.32138L36.5388 2.8099H30.599C32.2801 4.73681 33.087 7.03178 33.4681 8.89374ZM40.3492 2.8099L42.1423 4.6069C42.8147 4.54195 43.5096 4.5203 44.182 4.54195C47.8131 4.71516 51.0631 7.22664 53.2149 11.232C53.5511 6.70702 53.7304 4.17389 53.8201 2.8099H40.3492ZM55.7028 25.1967C55.658 25.6947 55.5908 26.171 55.5235 26.669C55.3218 28.0113 55.008 29.3536 54.6046 30.6527C54.2683 31.7136 53.8873 32.7528 53.4166 33.7704C53.3942 33.8353 53.3718 33.8786 53.3269 33.9436C53.439 35.9788 53.5063 37.9273 53.4838 39.746C56.7339 37.6242 58.2805 35.2426 58.2356 32.4713C58.1908 30.0032 56.9804 27.5133 55.7028 25.1967Z" fill="white"/>
</svg>
